<?xml version="1.0" encoding="utf-8"?>
<!-- Generator: Adobe Illustrator 18.1.1, SVG Export Plug-In . SVG Version: 6.00 Build 0)  -->
<svg version="1.1"
	 id="svg1341" inkscape:output_extension="org.inkscape.output.svg.inkscape" sodipodi:docname="gpl-v3-logo (copy).svg" sodipodi:docbase="/home/johns/graphics/logos/gplv3" inkscape:version="0.46" sodipodi:version="0.32" xmlns:sodipodi="http://sodipodi.sourceforge.net/DTD/sodipodi-0.dtd" xmlns:inkscape="http://www.inkscape.org/namespaces/inkscape" xmlns:svg="http://www.w3.org/2000/svg" xmlns:rdf="http://www.w3.org/1999/02/22-rdf-syntax-ns#" xmlns:dc="http://purl.org/dc/elements/1.1/" xmlns:cc="http://creativecommons.org/ns#"
	 xmlns="http://www.w3.org/2000/svg" xmlns:xlink="http://www.w3.org/1999/xlink" x="0px" y="0px"
	 viewBox="103.2 -110.7 692.3 278.3" enable-background="new 103.2 -110.7 692.3 278.3" xml:space="preserve">
<defs>
	
	
		<inkscape:perspective  inkscape:persp3d-origin="372.04724 : 350.78739 : 1" sodipodi:type="inkscape:persp3d" inkscape:vp_x="0 : 526.18109 : 1" inkscape:vp_y="0 : 1000 : 0" inkscape:vp_z="744.09448 : 526.18109 : 1" id="perspective79">
		</inkscape:perspective>
</defs>
<sodipodi:namedview  inkscape:window-y="49" inkscape:window-x="1" inkscape:window-height="825" inkscape:window-width="1439" inkscape:current-layer="layer1" inkscape:document-units="px" inkscape:pageshadow="2" inkscape:pageopacity="0.0" inkscape:zoom="0.56729519" borderopacity="1.0" inkscape:cx="372.04724" bordercolor="#666666" inkscape:cy="526.18109" showgrid="false" pagecolor="#ffffff" id="base">
	</sodipodi:namedview>
<path id="path2577" fill="#BD0000" d="M429,105.7L429,105.7c-1.6,0-3,0.5-4.4,1.6c-1,0.8-1.7,1.8-2.2,3h0.1c0.5-1.2,1.2-2.2,2.2-3
	C426,106.2,427.4,105.7,429,105.7z"/>
<path id="path2579" fill="#BD0000" d="M162.5-99.8c0,0-59.3,258.8-59.3,258.8c0,0,0,0,0.1,0h274.4h142.7c-17-1.5-30.4-7.5-38.4-18.3
	c-1.5-2-2.7-4.2-3.8-6.4c-0.7-1.7-1.3-3.4-2-5.1c-1.7-5.4-2.4-11.4-2.1-17.9c0.9-17.9,9.2-39.1,23.8-61.4
	c15.4-23.7,37.8-48.5,65.5-71.5c6.2-5.2,12.6-10.2,19.3-15.2c8.3-6.1,16.7-11.7,25-17c30.8-19.4,61.6-33,88.9-39.9
	c-26.1,8.5-55.3,22.9-84.2,42.6c-1,0.7-2.1,1.4-3.1,2.1c-16,11.1-30.6,22.9-43.3,34.9c-40.8,38.4-62.4,78.2-52.6,101.5
	c0.7,1.6,1.5,3.1,2.5,4.6c10.5,15.5,36.7,18.2,69.8,9.9c2.3-0.6,4.5-1.2,6.8-1.9c10.6-3.1,21.8-7.2,33.4-12.3
	c2.8-1.2,5.6-2.5,8.4-3.8c0.3-0.1,0.6-0.3,0.9-0.4c36.5-18.1,64.5-39,70.6-51.5c1.3-2.7,1.6-5.1,0.7-6.9
	c-4.3-8.8-34.6-2.8-71.4,13.1c-3,1.3-5.9,2.6-9,4c2.5-2.3,5-4.6,7.6-6.8c4.2-3.6,8.5-7.1,13.1-10.6c7.2-5.4,14.4-10.4,21.6-14.7
	c33.5-25.2,50.4-49.1,46.8-58c-0.7-1.7-2.1-2.8-4.3-3.5c-7-2.2-19.7,0.4-35.2,6.8c-12.8,5.2-27.4,13-42.3,22.6l-2,1.3l-0.4,0.2
	c0,0-7.1,4.7-7.1,4.7c0,0,4.1-7.5,4.1-7.5c6.1-11.1,16-22.8,28.3-33.6c9.1-7.9,19.4-15.3,30.5-21.8c4.2-2.5,8.4-4.8,12.6-6.8
	c4.3-2.1,8.6-4,12.8-5.6c12.2-4.8,23.9-7.8,34.1-8.6c-0.9,0-28.6,0-28.6,0h-96.5c0,0-425.3,0-425.3,0H162.5z M468.4-99.4
	c-1.7,25.5,3.3,62.9,14.5,104.3c2,7.4,4.2,14.9,6.6,22.5c1.5,4.7,3,9.3,4.6,13.9c-0.9,1.4-1.8,2.7-2.7,4
	c-14,21.5-22.2,41.7-24.2,59.4c-5.9-19.8-10.4-41.5-12.9-64.5c-0.7-6.6-1.3-13.1-1.7-19.6C449.8-26.2,455.9-68.6,468.4-99.4z
	 M189.1-66.2c0.3,0,0.6,0,1,0c0,0,63,0,63,0c5.4,0,9.6,1,12.5,3c3,2,4.1,4.7,3.4,7.9c0,0-7.5,33.9-7.5,33.9c0,0-22.2,0-22.2,0
	c0,0,7.3-33,7.3-33c0,0-55.6,0-55.6,0c0,0-20.1,90.8-20.1,90.8c0,0-7.2,32.9-7.2,32.9c0,0,55.6,0,55.6,0c0,0,0.1-0.2,0.1-0.2
	c0,0,11.1-50.3,11.1-50.3c0,0-26.1,0-26.1,0c0,0,2.5-11.4,2.5-11.4c0,0,48.3,0,48.3,0c0,0-13.9,62.8-13.9,62.8
	c-0.2,0.9-0.5,1.7-1,2.5c-1.1,2.1-3.1,3.9-5.9,5.3c-3.9,2-8.5,3-13.9,3c0,0-63,0-63,0c-5.4,0-9.6-1-12.5-3c-3-2-4.1-4.6-3.4-7.8
	c0,0,27.8-125.5,27.8-125.5c0.7-3.2,3-5.8,6.8-7.9c0.1-0.1,0.3-0.1,0.4-0.2C180.1-65.1,184.3-66.1,189.1-66.2z M287.9-66.2
	c0,0,79.3,0,79.3,0c5.3,0,9.5,1,12.5,3c3,2,4.1,4.7,3.4,7.9c0,0-14.8,66.9-14.8,66.9c-0.7,3.2-3,5.8-6.9,7.8
	c-3.9,2-8.5,3.1-13.8,3.1h-57.7l-11.1,50.3c0,0-1.8,8.3-1.8,8.3c0,0-21.7,0-21.7,0c0,0,1.7-7.5,1.7-7.5
	C256.9,73.6,287.9-66.2,287.9-66.2z M397.5-66.2c0,0,21.7,0,21.7,0c0,0-24.6,111.2-24.6,111.2c0,0-5.4,24.3-5.4,24.3c0,0,52,0,52,0
	c0.5,4,1.2,7.9,1.9,11.8c0,0-78.2,0-78.2,0c0,0,6.2-27.9,6.2-27.9L397.5-66.2z M307-54.4c0,0-14.4,65.1-14.4,65.1c0,0,54.2,0,54.2,0
	c0,0,14.4-65.1,14.4-65.1C361.1-54.4,307-54.4,307-54.4z M261.4,91.3c0.2,0,0.4,0,0.6,0c2.5,0,4.7,0.4,6.5,1.3
	c1.9,0.9,3.2,2.2,4,3.9c0.7,1.7,0.9,3.6,0.5,5.7c0,0-0.2,0.8-0.2,0.8c0,0-6.2,0-6.2,0c0,0,0.1-0.7,0.1-0.7c0.2-1.5,0-2.6-0.6-3.4
	c-0.1-0.1-0.2-0.2-0.3-0.3c-0.1-0.1-0.4-0.3-0.5-0.4c-0.9-0.5-2.2-0.9-4-0.9c-2.3,0-4.1,0.4-5.3,1.2c-1.2,0.8-1.9,1.7-2.1,2.8
	c-0.2,1.1,0.2,1.7,0.4,2c0,0,0,0,0.1,0.1c0.3,0.3,1.5,1,5.3,1.9c3.4,0.8,5.6,1.6,6.9,2.2c1.9,1,3.2,2.2,3.9,3.8
	c0.7,1.5,0.9,3.3,0.4,5.3c-0.4,1.9-1.4,3.6-2.8,5.3c-1.4,1.6-3.2,2.9-5.4,3.8c-2.1,0.9-4.5,1.4-6.9,1.4c-3.1,0-5.5-0.5-7.5-1.4
	c-2-1-3.5-2.5-4.3-4.4c-0.8-1.9-1-4.1-0.5-6.4c0,0,0.2-0.7,0.2-0.7h6.1l-0.1,0.7c-0.2,1.4,0,2.6,0.4,3.4c0.4,0.8,1,1.5,2.1,2
	c1.2,0.6,2.6,0.9,4.3,0.9c1.5,0,2.8-0.2,4-0.7c1.2-0.4,2.1-1,2.8-1.7c0.7-0.7,1.1-1.5,1.2-2.3c0.2-0.7,0.1-1.4-0.2-1.9
	c-0.3-0.5-1-1-2-1.4c0,0-5.2-1.5-5.2-1.5c-2.9-0.7-4.9-1.4-6-2.1c-1.6-0.9-2.7-2.1-3.3-3.5c-0.6-1.4-0.6-2.9-0.3-4.6
	c0.4-1.8,1.3-3.5,2.6-5.1c1.4-1.6,3.1-2.8,5.2-3.6C257.4,91.8,259.4,91.4,261.4,91.3z M317.4,91.4c0.3,0,0.7,0,1,0l3.8,0.4l1.3,0.1
	c0,0-1.9,4.7-1.9,4.7c0,0-0.4,0.7-0.4,0.7c0,0-2.9-0.3-2.9-0.3c-0.9,0-1.5,0.1-1.9,0.4c0,0-0.1,0.1-0.1,0.1c-0.1,0-0.1,0.1-0.2,0.2
	c-0.3,0.3-0.6,0.9-0.8,2c0,0-0.1,0.5-0.2,0.9c1.3,0,4.6,0,4.6,0c0,0-1.2,5.3-1.2,5.3c0,0-3.4,0-4.5,0c-0.3,1.5-4.5,20.3-4.5,20.3
	c0,0-6.2,0-6.2,0c0,0,4-18,4.5-20.3c-1,0-3.6,0-3.6,0c0,0,1.2-5.3,1.2-5.3c0,0,2.5,0,3.5,0c0.2-0.7,0.4-1.7,0.4-1.7
	c0.4-1.7,0.8-2.9,1.3-3.8c0.7-1.2,1.7-2.2,2.9-2.9C314.6,91.9,315.9,91.5,317.4,91.4z M332.1,91.7c0,0-1.6,7.3-2,9.1c1.2,0,4,0,4,0
	c0,0-1.2,5.3-1.2,5.3c0,0-2.9,0-4,0c-0.3,1.5-2.9,12.8-2.9,12.8c0,0-0.2,1.4-0.2,1.8c0,0,0,0,0,0.1c0,0,0,0,0,0.1c0,0,0.1,0,0.1,0
	c0,0,0.6,0.1,0.6,0.1l2.9-0.2l-0.3,4.7c0,0,0.1,0.9,0.1,0.9c0,0-4.2,0.5-4.2,0.5c-1.7,0-2.9-0.3-3.8-0.9c-0.9-0.6-1.5-1.4-1.7-2.5
	c0-0.2-0.1-0.5-0.1-0.9c0-0.8,0.1-2.1,0.6-4.3c0,0,2.2-10,2.7-12.1c-0.8,0-2.9,0-2.9,0c0,0,1.2-5.3,1.2-5.3c0,0,2.1,0,2.9,0
	c0.3-1.2,1.2-5.4,1.2-5.4c0,0,5-2.6,5-2.6C330.1,92.8,332.1,91.7,332.1,91.7z M135.8,91.9c0,0,24,0,24,0l-1.3,6c0,0-16,0-17.5,0
	c-0.3,1.2-1.4,6.1-1.8,7.9c2.2,0,15.2,0,15.2,0l-1.3,6c0,0-13.7,0-15.2,0c-0.3,1.5-3.3,14.7-3.3,14.7c0,0-6.4,0-6.4,0
	C128.1,126.4,135.8,91.9,135.8,91.9z M167.9,100.3c0.2,0,0.5,0,0.7,0c1.5,0,3,0.5,4.3,1.4c0,0,0.9,0.6,0.9,0.6l-3.3,5.4
	c0,0-0.9-0.6-0.9-0.6c-0.7-0.4-1.4-0.6-2.1-0.6c-0.6,0-1.3,0.2-1.9,0.6c-0.6,0.4-1.2,1-1.6,1.8c-0.7,1.3-1.2,2.8-1.6,4.4l-2.9,13.1
	c0,0-6.2,0-6.2,0c0,0,5.7-25.6,5.7-25.6c0,0,5.8,0,5.8,0c0,0-0.2,0.8-0.3,1.1c0.3-0.2,0.6-0.5,0.8-0.6
	C166.2,100.7,167,100.4,167.9,100.3z M186.2,100.3c0.4,0,0.7,0,1.1,0c3.5,0,6.1,1.2,7.8,3.6c1.1,1.6,1.7,3.5,1.7,5.8
	c0,1.3-0.2,2.6-0.5,4.1l-0.5,1.9c0,0-15.6,0-17.4,0c0,0.4-0.1,0.7-0.1,1.1c0,1.3,0.3,2.4,0.9,3.1c0.3,0.4,0.6,0.7,1,1
	c0.7,0.4,1.6,0.7,2.6,0.7c1.3,0,2.4-0.3,3.4-1c1-0.6,1.9-1.6,2.8-3c0,0,6.6,0,6.6,0c0,0-0.6,1.3-0.6,1.3c-1.3,2.6-3,4.6-5.2,6
	c-2.2,1.4-4.8,2.2-7.7,2.2c-3.8,0-6.6-1.2-8.3-3.6c-1.7-2.4-2.1-5.6-1.2-9.7c0.9-4.2,2.8-7.5,5.4-9.8
	C180.5,101.7,183.2,100.6,186.2,100.3z M214,100.3c0.4,0,0.7,0,1.1,0c3.5,0,6.1,1.2,7.8,3.6c1.1,1.6,1.7,3.5,1.7,5.8
	c0,1.2-0.2,2.6-0.5,4c0,0-0.5,1.9-0.5,1.9c0,0-15.6,0-17.4,0c0,0.2,0,0.5-0.1,0.7c0,0.1,0,0.2,0,0.3c0,0,0,0,0,0.1
	c0,0.3,0,0.5,0.1,0.7c0.1,1,0.3,1.8,0.8,2.4c0.1,0.1,0.2,0.3,0.3,0.4c0.8,0.8,1.9,1.3,3.3,1.3c1.3,0,2.4-0.3,3.4-1
	c1-0.6,1.9-1.6,2.8-3c0,0,6.7,0,6.7,0c0,0-0.6,1.3-0.6,1.3c-1.3,2.6-3,4.6-5.2,6c-2.2,1.4-4.8,2.2-7.7,2.2c-3.8,0-6.6-1.2-8.3-3.6
	c-1.1-1.5-1.7-3.5-1.7-5.8c0-0.4,0-0.7,0.1-1.1c0.1-0.9,0.2-1.8,0.4-2.8c0.9-4.1,2.7-7.5,5.4-9.8C208.2,101.7,211,100.6,214,100.3z
	 M289.6,100.3c0.4,0,0.7,0,1.1,0c3.5,0,6.3,1.2,8,3.6c1.8,2.4,2.2,5.6,1.3,9.6c-0.7,3.1-1.7,5.7-3.1,7.5c-1.4,1.8-3.1,3.3-5.2,4.4
	c-2.1,1-4.2,1.5-6.4,1.5c-3.6,0-6.3-1.2-8-3.6c-1.1-1.5-1.7-3.5-1.7-5.8c0-1.3,0.1-2.6,0.5-4.1c1-4.6,3.1-8.1,6.2-10.3
	C284.5,101.5,286.9,100.5,289.6,100.3z M383.2,100.3c0.4,0,0.9,0,1.3,0c2.1,0,3.8,0.2,5.1,0.7c1.4,0.5,2.3,1.3,2.9,2.2
	c0.5,0.9,0.8,1.9,0.8,3.3c0,0-0.6,3.9-0.6,3.9c0,0-1.2,5.3-1.2,5.3c-1,4.5-1.2,6.2-1.3,6.8c-0.1,0.9,0,1.7,0.3,2.5
	c0,0,0.4,1.4,0.4,1.4c0,0-6.3,0-6.3,0c0,0-0.3-0.8-0.3-0.8c-0.1-0.4-0.1-0.9-0.1-1.3c-1.2,0.7-2.4,1.4-3.5,1.8
	c-1.6,0.5-3.2,0.9-4.9,0.9c-2.9,0-5-0.8-6.3-2.2c-1-1.1-1.4-2.4-1.4-3.9c0-0.6,0.1-1.2,0.2-1.8c0.3-1.3,0.8-2.5,1.7-3.6
	c0.8-1.1,1.8-1.9,2.9-2.6c1.1-0.6,2.2-1.1,3.5-1.4c0,0,3.8-0.6,3.8-0.6c2.9-0.3,5.1-0.8,6.7-1.2c0-0.2,0.1-0.4,0.1-0.4
	c0.2-1.1,0.2-1.9-0.1-2.3c0,0-0.1-0.1-0.1-0.1c-0.1-0.1-0.1-0.2-0.2-0.2c-0.6-0.5-1.7-0.7-3.2-0.7c-1.7,0-2.9,0.3-3.7,0.8
	c-0.8,0.5-1.6,1.5-2.3,2.9c0,0-6.4,0-6.4,0c0,0,0.6-1.3,0.6-1.3c0.8-1.8,1.7-3.2,2.8-4.4c1.1-1.1,2.7-2,4.5-2.6
	C380.1,100.7,381.6,100.4,383.2,100.3z M410.3,100.3c0.2,0,0.5,0,0.7,0c1.6,0,3,0.5,4.4,1.4c0,0,0.8,0.6,0.8,0.6
	c0,0-3.3,5.4-3.3,5.4c0,0-0.9-0.6-0.9-0.6c-0.7-0.4-1.3-0.6-2.1-0.6c-0.6,0-1.3,0.2-1.9,0.6c-0.6,0.4-1.1,1-1.5,1.8
	c-0.7,1.3-1.2,2.8-1.6,4.4c0,0-2.9,13.1-2.9,13.1c0,0-6.2,0-6.2,0c0,0,5.7-25.6,5.7-25.6c0,0,5.8,0,5.8,0c0,0-0.1,0.8-0.2,1.1
	c0.3-0.2,0.5-0.5,0.8-0.6C408.6,100.7,409.4,100.4,410.3,100.3z M428.5,100.3c0.4,0,0.7,0,1.1,0c3.5,0,6.1,1.2,7.8,3.6
	c1.1,1.6,1.7,3.5,1.7,5.8c0,1.3-0.2,2.6-0.5,4.1l-0.4,1.9c0,0-15.6,0-17.4,0c0,0.4-0.1,0.7-0.1,1.1c0,1.3,0.3,2.4,0.9,3.1
	c0.1,0.1,0.2,0.3,0.3,0.4c0.1,0.1,0.2,0.2,0.2,0.2c0.8,0.7,1.8,1.1,3.1,1.1c1.3,0,2.4-0.3,3.4-1c1-0.6,1.9-1.6,2.8-3
	c0,0,6.7,0,6.7,0c0,0-0.6,1.3-0.6,1.3c-1.3,2.6-3,4.6-5.2,6c-2.2,1.4-4.8,2.2-7.7,2.2c-3.8,0-6.5-1.2-8.3-3.6
	c-1.7-2.4-2.1-5.6-1.2-9.7c0.9-4.2,2.7-7.5,5.4-9.8C422.7,101.7,425.5,100.6,428.5,100.3z M335.2,100.8c0,0,6.3,0,6.3,0
	c0,0,0.8,15.2,0.8,15.4c0.3-0.5,0.5-1,0.5-1.1c0,0,7-14.3,7-14.3c0,0,5.8,0,5.8,0c0,0,0.5,15,0.5,15.1c0.2-0.3,7.9-15.1,7.9-15.1
	c0,0,6.3,0,6.3,0c0,0-13.9,25.6-13.9,25.6c0,0-5.7,0-5.7,0c0,0-0.6-13.9-0.6-14.7c-2.4,4.8-7.1,14.7-7.1,14.7c0,0-5.9,0-5.9,0
	C337.3,126.4,335.2,100.8,335.2,100.8z M186.3,105.7c-1.5,0.1-2.8,0.6-4,1.6c-1,0.8-1.7,1.9-2.2,3c0,0,10.5,0,10.5,0
	c0-0.2,0.1-0.4,0.1-0.6c0-1-0.2-1.7-0.5-2.2c-0.8-1.2-1.9-1.8-3.5-1.8C186.6,105.7,186.4,105.7,186.3,105.7z M214.1,105.7
	c-1.5,0.1-2.8,0.6-4,1.6c-1,0.8-1.6,1.9-2.2,3c0,0,10.5,0,10.5,0c0-0.2,0.1-0.4,0.1-0.6c0-1-0.2-1.7-0.5-2.2
	c-0.1-0.2-0.4-0.5-0.5-0.7c-0.7-0.7-1.7-1.1-3-1.1C214.3,105.7,214.2,105.7,214.1,105.7z M428.9,105.7c-1.5,0-2.9,0.6-4.2,1.6
	c-1,0.8-1.6,1.9-2.2,3c0,0,10.4,0,10.4,0c0-0.2,0.1-0.4,0.1-0.6c0-1-0.2-1.7-0.5-2.2c-0.7-1.2-1.9-1.8-3.5-1.8
	C428.9,105.7,428.9,105.7,428.9,105.7z M289.2,105.8c-1.4,0.2-2.7,0.8-3.9,1.9c-1.5,1.3-2.5,3.4-3.1,6.2c-0.3,1.2-0.4,2.2-0.4,3
	c0,1.2,0.2,2.2,0.7,2.9c0.1,0.2,0.3,0.4,0.4,0.5c0.8,0.8,1.8,1.2,3.1,1.2c1.7,0,3.2-0.6,4.7-2c1.5-1.3,2.5-3.5,3.1-6.3
	c0.6-2.6,0.5-4.5-0.3-5.8c-0.8-1.2-1.9-1.8-3.5-1.8C289.8,105.8,289.5,105.7,289.2,105.8z M385.5,115.1c-1.4,0.4-3.1,0.7-5.2,1
	c-1.6,0.2-2.7,0.5-3.4,0.7c-0.6,0.2-1,0.6-1.4,1c-0.4,0.4-0.6,0.9-0.7,1.4c0,0.2-0.1,0.4-0.1,0.6c0,0,0,0,0,0.1c0,0,0,0.1,0,0.2
	c0,0.1,0,0.2,0.1,0.3c0,0,0,0.1,0.1,0.1c0,0,0,0.1,0.1,0.2c0,0,0.1,0.1,0.1,0.2c0,0.1,0.1,0.2,0.2,0.2c0.4,0.5,1.3,0.7,2.5,0.7
	c1.3,0,2.6-0.3,3.8-0.9c1.2-0.6,2.1-1.4,2.8-2.5C384.8,117.6,385.2,116.5,385.5,115.1z"/>
<path id="path2583" fill="#BD0000" d="M429,105.7C429,105.7,429,105.7,429,105.7c1.6,0,2.7,0.6,3.4,1.8c0.3,0.5,0.5,1.3,0.5,2.3
	c0,0.2,0,0.4-0.1,0.6h0.1c0-0.2,0-0.4,0-0.6c0-1-0.2-1.7-0.5-2.3C431.8,106.2,430.7,105.7,429,105.7z"/>
<path id="path2647" sodipodi:nodetypes="cccccssccccscccsccc" fill="#BD0000" fill-opacity="0" stroke="#BD0000" stroke-width="8.5261" d="
	M472.5,132.2c0.7,1.8,1.4,3.6,2.1,5.3c1.1,2.4,2.4,4.6,3.9,6.7c8.3,11.3,22.3,17.5,40,19.1h19.1c6-0.5,12.3-1.3,18.9-2.6
	c11.3-2.2,23.3-5.6,35.7-10.1c9.4-3.4,19.1-7.5,28.9-12.2c21.4-10.3,43.5-23.5,65.2-39.4c7.1-5.3,14-10.6,20.6-16.1
	c6-5,11.8-10.1,17.3-15.3c15.4-14.9,27.1-29.9,33.6-43.2c6.9-13.8,8.2-25.6,2.6-33c-3.4-4.6-9.2-7-16.6-7.6
	c33.5-25.1,53-55.6,46-74.8c-2.2-6.1-7.1-10.7-14.1-13.2c-3.1-1.1-6.6-1.8-10.4-2.2h-10.3c-14.4,1-35.3,6.2-53,14.9"/>
</svg>
